<svg xmlns="http://www.w3.org/2000/svg" viewBox="-148 -149.2 296 297.2" width="296" height="297" role="img" aria-label="Cube Financial Group">
<polygon points="-120,32.40 0,92.40 0,120 -120,60" fill="#c2cee0" stroke="#33425c" stroke-width="2.2" stroke-linejoin="round"/><polygon points="120,32.40 0,92.40 0,120 120,60" fill="#97a8c2" stroke="#33425c" stroke-width="2.2" stroke-linejoin="round"/><polygon points="0,-27.60 120,32.40 0,92.40 -120,32.40" fill="#eaeff6" stroke="#33425c" stroke-width="2.2" stroke-linejoin="round"/><polygon points="-120,-14.40 0,45.60 0,73.20 -120,13.20" fill="#d4af37" stroke="#6e5414" stroke-width="2.2" stroke-linejoin="round"/><polygon points="120,-14.40 0,45.60 0,73.20 120,13.20" fill="#a37f27" stroke="#6e5414" stroke-width="2.2" stroke-linejoin="round"/><polygon points="0,-74.40 120,-14.40 0,45.60 -120,-14.40" fill="#eed384" stroke="#6e5414" stroke-width="2.2" stroke-linejoin="round"/><polygon points="-120,-61.20 0,-1.20 0,26.40 -120,-33.60" fill="#c2cee0" stroke="#33425c" stroke-width="2.2" stroke-linejoin="round"/><polygon points="120,-61.20 0,-1.20 0,26.40 120,-33.60" fill="#97a8c2" stroke="#33425c" stroke-width="2.2" stroke-linejoin="round"/><polygon points="0,-121.20 120,-61.20 0,-1.20 -120,-61.20" fill="#eaeff6" stroke="#33425c" stroke-width="2.2" stroke-linejoin="round"/>
</svg>
