<?xml version="1.0" encoding="UTF-8"?>
<svg xmlns="http://www.w3.org/2000/svg" width="1016" height="120" viewBox="0 0 1016 120" fill="none">
  <g clip-path="url(#clip0_742_254)">
    <mask id="mask0_742_254" style="mask-type:luminance" maskUnits="userSpaceOnUse" x="-20" y="-15" width="1056" height="226">
      <path d="M1036 -14.48H-20V210.64H1036V-14.48Z" fill="white"></path>
    </mask>
    <g mask="url(#mask0_742_254)">
      <path d="M536.32 57.04H564.64L508 0.23999L451.36 57.04H479.68L508 28.56L536.32 57.04Z" fill="#5A93CE"></path>
      <path d="M536.32 63.28H564.64L508 119.92L451.36 63.28H479.68L508 91.6L536.32 63.28Z" fill="#243F87"></path>
    </g>
    <mask id="mask1_742_254" style="mask-type:luminance" maskUnits="userSpaceOnUse" x="-1" y="0" width="1018" height="196">
      <path d="M1016.32 0.23999H-0.480652V195.92H1016.32V0.23999Z" fill="white"></path>
    </mask>
    <g mask="url(#mask1_742_254)">
      <path d="M356.8 70.48C354.72 68.56 350.88 66 345.12 62.48C338.08 58.32 333.6 54.96 331.84 52.4C330.4 50.64 329.76 48.88 329.76 46.64C329.76 44.08 330.88 41.52 332.96 39.44C334.88 37.36 337.6 36.24 340.64 36.24C343.52 36.24 346.08 37.04 348.8 38.64C351.36 40.24 353.28 42.32 354.72 45.04C356.16 47.76 357.12 51.28 357.6 55.92H359.36V32.24H357.6C357.44 33.84 356.96 34.8 356.48 35.28C356 35.92 355.36 36.08 354.56 36.08C353.92 36.08 352.64 35.76 351.04 34.8C347.36 33.04 343.84 32.24 340.64 32.24C335.36 32.24 331.04 34 327.68 37.52C324.32 41.04 322.56 45.36 322.56 50.16C322.56 53.04 323.2 55.6 324.32 58C325.44 60.4 327.2 62.48 329.44 64.4C331.68 66.32 335.36 69.04 340.64 72.24C345.92 75.6 349.12 77.68 350.24 78.64C352 80.24 353.28 81.84 354.08 83.44C354.88 85.2 355.36 86.96 355.36 88.72C355.36 91.6 354.24 94.32 352.16 96.56C349.92 98.8 346.88 99.92 343.2 99.92C339.84 99.92 336.96 99.12 334.24 97.52C331.36 95.92 329.44 93.84 328.16 91.44C326.72 88.88 325.76 85.2 324.96 80.4H323.2V103.76H324.96C325.12 102.16 325.44 101.2 325.92 100.72C326.4 100.08 326.88 99.92 327.68 99.92C328.48 99.92 330.4 100.4 333.28 101.52C336.16 102.64 338.08 103.12 339.04 103.28C340.64 103.6 342.24 103.76 344.16 103.76C349.76 103.76 354.4 102 358.08 98.16C361.6 94.48 363.36 90 363.36 84.72C363.36 82 362.88 79.44 361.76 76.88C360.64 74.48 359.04 72.24 356.8 70.48ZM420 33.68H369.76L369.12 49.84H370.88C371.04 46.8 371.84 44.24 372.96 42.48C374.08 40.72 375.36 39.44 376.96 38.8C378.08 38.32 380.16 38.16 383.04 38.16H390.4V90.32C390.4 94.16 390.08 96.72 389.44 97.84C388.32 99.6 386.4 100.4 383.84 100.4H381.6V102.32H407.68V100.4H405.6C403.2 100.4 401.44 99.76 400.32 98.32C399.52 97.2 399.04 94.64 399.04 90.32V38.16H407.68C410.24 38.16 412.32 38.48 413.92 39.44C415.36 40.4 416.64 41.84 417.6 43.76C418.08 45.04 418.56 46.96 418.88 49.84H420.64L420 33.68ZM298.24 35.6C299.84 35.6 300.96 35.76 301.76 36.24C302.56 36.72 303.2 37.2 303.68 38C304.16 38.8 304.32 39.6 304.32 40.56C304.32 42 303.52 44.4 301.6 47.6L289.6 68.72L276.8 46.64C275.04 43.44 274.08 41.2 274.08 40.08C274.08 38.64 274.72 37.52 275.84 36.72C277.12 35.92 278.4 35.6 279.84 35.6H281.12V33.68H255.04V35.6C256.16 35.6 256.96 35.76 257.6 36.08C259.84 37.2 261.28 38.32 262.08 39.12C262.72 39.92 264 42 266.08 45.36L282.88 74.32V90.32C282.88 94.16 282.56 96.72 281.76 97.84C280.8 99.6 278.88 100.4 276.16 100.4H274.08V102.32H300.32V100.4H298.24C295.84 100.4 293.92 99.76 292.8 98.32C292 97.2 291.52 94.64 291.52 90.32V72.88L306.24 47.28C308.16 43.92 309.6 41.52 310.88 40.08C312 38.64 313.44 37.52 314.88 36.72C316.48 35.92 317.6 35.6 318.4 35.6H319.52V33.68H298.24V35.6ZM257.12 92.72C255.52 94.64 253.76 95.92 251.84 96.72C249.92 97.52 246.56 98 241.92 98H237.44C233.44 98 231.2 97.84 230.4 97.36C229.6 97.04 229.12 96.56 228.64 95.92C228.16 94.8 228 92.88 228 90V46.8C228 42.8 228.16 40.24 228.64 39.28C229.12 38.16 230.08 37.36 231.36 36.56C232.64 35.92 235.04 35.6 238.24 35.6V33.68H210.4V35.6H212.8C215.04 35.6 216.8 36.4 218.08 37.84C218.88 38.96 219.2 41.52 219.2 45.84V90.16C219.2 94 218.88 96.56 218.4 97.68C217.28 99.44 215.36 100.4 212.8 100.4H210.4V102.32H257.92L263.2 83.76L261.76 83.28C260.16 87.6 258.56 90.64 257.12 92.72ZM20.6396 75.76L31.1996 48.08L41.5996 75.76H20.6396ZM55.8397 89.2L35.0396 33.68H32.3196L11.3596 88.56C9.43962 93.52 7.83962 96.88 6.23962 98.48C5.43962 99.28 3.83966 99.92 1.27966 100.4V102.32H20.6396V100.4C17.7596 100.24 15.8396 99.6 14.8796 98.8C14.0796 98 13.5996 97.2 13.5996 96.08C13.5996 94.8 14.0796 92.88 15.0396 90.16L19.1996 79.44H43.0396L46.5596 89.2C47.8396 92.4 48.4796 94.8 48.4796 96.24C48.4796 97.36 47.9996 98.32 47.1996 98.96C46.2396 99.76 44.6396 100.24 42.2396 100.4V102.32H66.3997V100.4C63.8397 100.24 61.9196 99.44 60.4796 98.16C59.0396 96.72 57.5997 93.84 55.8397 89.2ZM156 75.76L166.72 48.08L176.96 75.76H156ZM191.2 89.2L170.56 33.68H167.68L146.72 88.56C144.96 93.52 143.2 96.88 141.76 98.48C140.96 99.28 139.2 99.92 136.64 100.4V102.32H156V100.4C153.12 100.24 151.2 99.6 150.24 98.8C149.44 98 148.96 97.2 148.96 96.08C148.96 94.8 149.44 92.88 150.56 90.16L154.56 79.44H178.4L182.08 89.2C183.2 92.4 183.84 94.8 183.84 96.24C183.84 97.36 183.36 98.32 182.56 98.96C181.6 99.76 180 100.24 177.6 100.4V102.32H201.76V100.4C199.2 100.24 197.28 99.44 195.84 98.16C194.56 96.72 192.96 93.84 191.2 89.2ZM137.28 33.68H115.84V35.6H117.92C120.32 35.6 122.08 36.24 123.2 37.68C124.16 38.8 124.48 41.36 124.48 45.68V85.2L87.0396 33.68H70.3997V35.6C72.3197 35.6 73.5997 35.76 74.3997 36.08C76.1597 36.72 77.5996 37.36 78.5596 38.16C79.3596 38.8 80.7996 40.4 82.5596 42.8V90.32C82.5596 94.16 82.2396 96.72 81.5996 97.84C80.4796 99.6 78.5597 100.4 75.8397 100.4H73.7596V102.32H95.3596V100.4H93.1196C90.7196 100.4 88.9596 99.76 87.6796 98.32C86.8796 97.2 86.5596 94.64 86.5596 90.32V48.24L125.92 102.32H128.48V45.68C128.48 41.84 128.96 39.28 129.6 38.16C130.72 36.56 132.48 35.6 135.2 35.6H137.28V33.68Z" fill="#1E1C55"></path>
      <path d="M355.84 71.6C353.92 69.84 350.08 67.28 344.32 63.76C337.28 59.6 332.8 56.24 330.56 53.36C329.12 51.44 328.32 49.04 328.32 46.64C328.32 43.6 329.6 40.72 331.84 38.48C334.08 35.92 337.28 34.8 340.64 34.8C343.68 34.8 346.72 35.6 349.44 37.36C352.32 39.12 354.56 41.36 356 44.24C357.6 47.28 358.56 50.96 359.2 55.6L357.6 55.92V54.32H357.92V33.68H357.6V32.24L359.2 32.4C358.72 34.16 358.4 35.44 357.6 36.4C356.8 37.2 355.68 37.68 354.56 37.52C353.28 37.52 352.16 37.04 350.24 36.24H350.4C346.88 34.48 343.52 33.68 340.64 33.68C335.68 33.68 331.84 35.28 328.8 38.48C325.6 41.84 324.16 45.68 324 50.16C324 52.88 324.64 55.28 325.6 57.36C326.72 59.44 328.32 61.52 330.4 63.28C332.48 65.2 336.16 67.76 341.44 70.96C346.72 74.32 349.92 76.4 351.2 77.52C353.12 79.12 354.56 80.88 355.52 82.96V82.8C356.32 84.72 356.8 86.64 356.8 88.72C356.8 92.08 355.52 95.12 353.12 97.52C350.72 100.08 347.2 101.36 343.2 101.36C339.68 101.36 336.32 100.4 333.44 98.64V98.8C330.56 97.04 328.32 94.8 326.72 92.08C325.28 89.36 324.32 85.52 323.52 80.56L324.96 80.4V81.84H324.64V102.32H324.96V103.76L323.52 103.6C323.68 101.84 324 100.72 324.8 99.76V99.6C325.44 98.8 326.56 98.32 327.68 98.48C328.32 98.48 329.12 98.64 330.08 98.8C331.04 99.12 332.32 99.6 333.76 100.08C336.64 101.2 338.56 101.84 339.36 101.84C340.8 102.16 342.4 102.32 344.16 102.32C349.44 102.32 353.6 100.56 356.96 97.2C360.32 93.68 361.92 89.68 361.92 84.72C361.92 82.16 361.44 79.92 360.32 77.52C359.36 75.28 357.92 73.2 355.84 71.6L357.92 69.36C360.16 71.28 361.92 73.68 363.04 76.4C364.32 78.96 364.96 81.84 364.96 84.72C364.96 90.32 362.88 95.28 359.04 99.12C355.2 103.28 350.08 105.36 344.16 105.36C342.24 105.36 340.48 105.2 338.72 104.72L339.04 103.28L338.88 104.72C337.6 104.56 335.68 103.92 332.8 102.8C331.36 102.32 330.08 102 329.28 101.68C328.32 101.36 327.68 101.36 327.68 101.36C327.2 101.36 327.2 101.36 327.04 101.68L325.92 100.72L327.04 101.52C326.88 101.68 326.56 102.48 326.4 104.08L326.24 105.36H321.76V78.8H326.24L326.4 80.08C327.2 84.88 328.16 88.56 329.44 90.64C330.56 92.88 332.32 94.64 334.88 96.24C337.44 97.68 340.16 98.32 343.2 98.48C346.56 98.32 349.12 97.36 351.04 95.44C352.96 93.52 353.92 91.28 353.92 88.72C353.92 87.12 353.6 85.68 352.8 84.08C352 82.64 350.88 81.2 349.28 79.76C348.32 78.96 345.12 76.72 339.84 73.52C334.56 70.32 330.72 67.6 328.48 65.52C326.08 63.44 324.32 61.2 323.04 58.64C321.76 56.08 321.12 53.2 321.12 50.16C321.12 44.88 323.04 40.24 326.56 36.56C330.24 32.72 335.04 30.64 340.64 30.64C344.16 30.64 347.84 31.6 351.68 33.52C353.28 34.32 354.4 34.64 354.56 34.64C355.04 34.64 355.2 34.48 355.36 34.32C355.52 34.32 356 33.36 356.16 31.92L356.48 30.64H360.8V57.36H356.32L356.16 56.08C355.68 51.6 354.72 48.08 353.44 45.68C352.16 43.28 350.4 41.36 348 39.92C345.6 38.32 343.2 37.68 340.64 37.68C337.92 37.68 335.84 38.64 333.92 40.4C332.16 42.32 331.36 44.4 331.36 46.64C331.36 48.56 331.84 50 332.96 51.6C334.56 53.68 338.88 57.2 345.92 61.2C351.68 64.72 355.52 67.44 357.92 69.36L355.84 71.6ZM420 33.68V35.28H371.2L370.72 48.4H370.88V49.84L369.44 49.68C369.6 46.48 370.4 43.76 371.68 41.68C372.8 39.76 374.4 38.16 376.32 37.36C377.92 36.88 380 36.56 383.04 36.56H391.84V90.32C391.84 94.32 391.68 96.88 390.56 98.48V98.64C389.28 100.72 386.72 101.84 383.84 101.84H383.04V102.32H381.6V100.88H406.24V100.4H407.68V101.84H405.6C402.88 101.84 400.64 101.04 399.2 99.12C398.4 98.32 398.24 97.2 397.92 95.76C397.76 94.32 397.6 92.56 397.6 90.32V36.56H407.68C410.4 36.56 412.8 37.04 414.56 38.16C416.48 39.28 417.92 41.04 418.88 43.12C419.68 44.72 420 46.8 420.48 49.68L418.88 49.84V48.4H419.2L418.56 33.84L420 33.68H421.44L422.24 51.28H417.6L417.44 50C417.12 47.28 416.64 45.36 416.32 44.4H416.16C415.36 42.64 414.4 41.52 413.12 40.72C411.84 39.92 410.08 39.6 407.68 39.6H400.48V90.32C400.48 92.4 400.64 94.16 400.8 95.28C400.96 96.56 401.28 97.2 401.44 97.36C402.24 98.32 403.52 98.96 405.6 98.96H409.12V103.76H380.16V98.96H383.84C386.08 98.96 387.36 98.32 388.16 97.04C388.48 96.56 388.96 94.16 388.96 90.32V39.6H383.04C380.32 39.6 378.24 39.76 377.44 40.08C376.32 40.72 375.2 41.68 374.08 43.28C373.28 44.72 372.64 46.96 372.32 50V51.28H367.68L368.48 32.24H421.44V33.68H420ZM298.24 35.6V34.16C300 34.16 301.28 34.32 302.56 34.96C303.52 35.44 304.32 36.24 304.96 37.2C305.6 38.16 305.76 39.28 305.76 40.56C305.76 42.64 304.8 45.04 302.88 48.24V48.4L289.6 71.6L275.52 47.44C273.76 44.08 272.64 42 272.64 40.08C272.64 38.16 273.44 36.4 275.04 35.44C276.48 34.64 278.08 34.16 279.84 34.16H281.12V35.6H279.68V35.28H256.48V35.6H255.04V34.16C256.32 34.16 257.44 34.32 258.4 34.8L257.6 36.08L258.24 34.8C260.64 36.08 262.08 37.04 263.2 38.16L262.08 39.12L263.04 38.16C264 39.12 265.28 41.2 267.36 44.56L284.32 74V90.32C284.32 94.32 284 96.88 283.04 98.48C281.76 100.72 279.2 101.84 276.16 101.84H275.52V102.32H274.08V100.88H298.88V100.4H300.32V101.84H298.24C295.52 101.84 293.12 101.04 291.68 99.28V99.12C290.88 98.32 290.72 97.2 290.4 95.76C290.24 94.32 290.08 92.56 290.08 90.32V72.56L304.96 46.48C306.88 43.12 308.32 40.72 309.76 39.12C311.04 37.52 312.64 36.4 314.24 35.44C315.84 34.64 317.12 34.16 318.4 34.16H319.52V35.6H318.08V35.28H299.68V35.6H298.24H296.64V32.24H321.12V37.04H318.4C318.08 37.04 316.96 37.36 315.68 38V38.16C314.24 38.8 313.12 39.76 312 41.04C310.88 42.32 309.28 44.72 307.52 47.92L292.96 73.36V90.32C292.96 92.4 293.12 94.16 293.28 95.28C293.44 96.4 293.76 97.2 293.92 97.36C294.72 98.32 296 98.96 298.24 98.96H301.76V103.76H272.64V98.96H276.16C278.56 98.96 279.84 98.32 280.64 97.04C280.96 96.56 281.44 94.16 281.44 90.32V74.8L264.8 46.16C262.88 42.8 261.44 40.72 260.96 40.08H260.8C260.48 39.6 259.04 38.48 256.96 37.36C256.64 37.2 256 37.04 255.04 37.04H253.44V32.24H282.56V37.04H279.84C278.56 37.04 277.6 37.36 276.64 38C275.84 38.48 275.52 38.96 275.52 40.08C275.52 40.56 276.32 42.8 278.08 45.84L289.6 65.68L300.32 46.8C302.08 43.76 302.88 41.52 302.88 40.56C302.88 39.76 302.72 39.28 302.4 38.64L303.68 38L302.4 38.8C302.08 38.16 301.76 37.84 301.12 37.52C300.64 37.36 299.68 37.04 298.24 37.04H296.64V35.6H298.24ZM258.24 93.52C256.48 95.6 254.56 97.2 252.32 98.16C250.08 98.96 246.72 99.44 241.92 99.44H237.44C235.36 99.44 233.76 99.28 232.64 99.28C231.36 99.12 230.56 99.12 229.76 98.8C228.8 98.32 227.84 97.52 227.36 96.56V96.4C226.72 94.96 226.56 93.04 226.56 90V46.8C226.56 44.88 226.56 43.12 226.72 41.84C226.88 40.4 227.04 39.44 227.36 38.64C228 37.2 229.12 36.08 230.72 35.28C232.32 34.48 234.72 34.16 237.76 34.16C237.92 34.16 238.08 34.16 238.24 34.16V35.6H236.8V35.28H212V35.6H210.4V34.16H212.8C215.36 34.16 217.76 34.96 219.2 36.88C219.84 37.84 220.16 38.96 220.48 40.4C220.64 41.84 220.8 43.6 220.8 45.84V90.16C220.64 94.16 220.48 96.72 219.68 98.32H219.52C218.24 100.72 215.68 102 212.8 101.84H212V102.32H210.4V100.88H256.8L261.76 83.28L263.2 83.76L262.88 85.2L261.44 84.72L261.76 83.28L263.2 83.92C261.6 88.24 259.84 91.44 258.24 93.52L255.84 91.76C257.28 90 258.88 86.96 260.32 82.8L260.8 81.68L265.12 82.64L259.04 103.76H208.96V98.96H212.8C215.04 98.96 216.16 98.32 217.12 96.88C217.44 96.4 217.76 94 217.76 90.16V45.84C217.76 43.76 217.76 42 217.44 40.88C217.28 39.6 216.96 38.8 216.8 38.64L218.08 37.84L216.8 38.8C216 37.68 214.72 37.04 212.8 37.04H208.96V32.24H239.68V37.04H238.24C238.08 37.04 237.92 37.04 237.76 37.04C234.88 37.04 232.96 37.36 232.16 37.84C231.04 38.48 230.4 39.12 230.08 39.92C229.92 40.08 229.76 40.88 229.6 42.16C229.44 43.28 229.44 44.88 229.44 46.8V90C229.44 92.72 229.76 94.64 230.08 95.28L228.64 95.92L230.08 95.12C230.24 95.6 230.4 95.76 231.04 96.08C231.84 96.24 234.08 96.4 237.44 96.4H241.92C246.56 96.4 249.76 96.08 251.2 95.44H251.36C252.96 94.8 254.4 93.52 255.84 91.76L258.24 93.52ZM20.6403 75.76L19.2003 75.12L31.2003 43.92L43.6802 77.2H18.5602L19.2003 75.12L20.6403 75.76V74.16H39.5203L31.2003 52.24L22.0803 76.24L20.6403 75.76ZM54.4003 89.68L34.0803 35.28H33.2803L12.8002 89.04C10.8802 94.16 9.12023 97.52 7.36023 99.44C6.08023 100.72 4.32022 101.2 1.60022 101.84L1.28027 100.4H2.72021V100.88H19.2003V100.4H20.6403L20.4802 101.84C17.4402 101.52 15.3602 101.2 13.9202 99.92C12.8002 98.96 12.0002 97.52 12.0002 96.08C12.1602 94.48 12.6403 92.4 13.7603 89.68L18.2402 78H44.0002L48.0002 88.72C49.2802 91.92 49.9202 94.32 49.9202 96.24C49.9202 97.68 49.2802 99.12 48.1602 100.08C46.7202 101.36 44.8002 101.68 42.2402 101.84V100.4H43.6802V100.88H64.9603V100.4H66.4003L66.2402 101.84C63.5202 101.68 61.1203 100.88 59.5203 99.12C57.7603 97.36 56.1603 94.32 54.4003 89.68L57.2803 88.72C58.8803 93.2 60.4802 96.08 61.6002 97.04C62.5602 98.16 64.1603 98.8 66.4003 98.96H67.8403V103.76H40.6403V98.96H42.0803C44.3203 98.8 45.7603 98.32 46.0803 98C46.7203 97.36 46.8802 96.88 46.8802 96.24C46.8802 95.12 46.4003 92.88 45.2803 89.68L41.9202 80.88H20.1602L16.4802 90.64C15.5202 93.2 15.0402 95.12 15.0402 96.08C15.0402 96.72 15.2003 97.2 15.8403 97.84L14.8802 98.8L15.8403 97.68C16.1603 98.16 17.9202 98.8 20.8002 98.96L22.0803 99.12V103.76H-0.15979V99.28L0.960205 98.96C3.52021 98.48 4.96027 97.84 5.28027 97.36C6.40027 96.08 8.16029 92.88 9.92029 88.08L31.2003 32.24H36.1602L57.2803 88.72L54.4003 89.68ZM156 75.76L154.72 75.12L166.72 43.92L179.04 77.2H153.92L154.72 75.12L156 75.76V74.16H174.88L166.72 52.24L157.44 76.24L156 75.76ZM189.92 89.68L169.44 35.28H168.64L148.16 89.04C146.24 94.16 144.64 97.52 142.72 99.44C141.44 100.72 139.68 101.2 136.96 101.84L136.64 100.4H138.24V100.88H154.56V100.4H156V101.84C152.8 101.52 150.72 101.2 149.28 99.92C148.16 98.96 147.52 97.52 147.52 96.08C147.52 94.48 148.16 92.4 149.12 89.68L153.6 78H179.36L183.36 88.72C184.64 91.92 185.28 94.32 185.28 96.24C185.28 97.68 184.64 99.12 183.52 100.08C182.08 101.36 180.32 101.68 177.6 101.84V100.4H179.04V100.88H200.32V100.4H201.76L201.6 101.84C198.88 101.68 196.64 100.88 194.88 99.12C193.12 97.36 191.68 94.32 189.92 89.68L192.64 88.72C194.24 93.2 195.84 96.08 196.96 97.04C198.08 98.16 199.68 98.8 201.92 98.96H203.2V103.76H176.16V98.96H177.44C179.84 98.8 181.28 98.32 181.6 98C182.08 97.36 182.4 96.88 182.4 96.24C182.4 95.12 181.76 92.88 180.64 89.68L177.28 80.88H155.68L151.84 90.64C150.88 93.2 150.4 95.12 150.4 96.08C150.4 96.72 150.56 97.2 151.36 97.84C151.52 98.16 153.28 98.8 156.16 98.96L157.6 99.12V103.76H135.2V99.28L136.48 98.96C138.88 98.48 140.32 97.84 140.64 97.36C141.92 96.08 143.52 92.88 145.44 88.08L166.72 32.24H171.52L192.64 88.72L189.92 89.68ZM137.28 33.68V35.28H117.28V35.6H115.84V34.16H117.92C120.64 34.16 123.04 34.96 124.48 36.88L123.2 37.68L124.48 36.72C125.12 37.68 125.44 38.8 125.76 40.24C125.92 41.68 126.08 43.44 126.08 45.68V89.68L86.2402 35.28H72.0002V35.6H70.4003V34.16C72.3203 34.16 73.7602 34.32 74.8802 34.64C76.8002 35.28 78.2402 36.08 79.3602 37.04C80.4802 37.84 81.9202 39.44 83.6802 41.84L84.0002 42.32V90.32C84.0002 94.32 83.8402 96.88 82.7202 98.48C81.4402 100.88 78.8803 101.84 75.8403 101.84H75.2003V102.32H73.7603V100.88H93.7603V100.4H95.3602V101.84H93.1202C90.4002 101.84 88.1602 101.04 86.5602 99.12C85.9202 98.32 85.6002 97.2 85.4402 95.76C85.1202 94.32 85.1202 92.56 85.1202 90.32V43.6L126.72 100.88H127.04V45.68C127.04 41.68 127.36 39.12 128.32 37.52C129.76 35.28 132.16 34.16 135.2 34.16H135.84V33.68H137.28H138.88V37.04H135.2C132.8 37.04 131.68 37.68 130.72 38.96H130.88C130.4 39.44 129.92 41.84 130.08 45.68V103.76H125.28L88.0002 52.72V90.32C88.0002 92.4 88.1603 94.16 88.3203 95.28C88.4803 96.56 88.8003 97.2 88.9603 97.36C89.7603 98.32 91.0402 98.96 93.1202 98.96H96.8002V103.76H72.3203V98.96H75.8403C78.2403 98.96 79.5203 98.16 80.3203 97.04C80.6403 96.56 81.1202 94.16 81.1202 90.32V42.8H82.5602L81.4402 43.6C79.6802 41.36 78.2402 39.76 77.6002 39.28C76.8002 38.64 75.6802 38 73.9202 37.52C73.4402 37.2 72.1603 37.04 70.4003 37.04H68.9603V32.24H87.6802L123.04 80.72V45.68C123.04 43.6 123.04 41.84 122.72 40.72C122.56 39.6 122.24 38.8 122.08 38.64C121.28 37.68 120.16 37.04 117.92 37.04H114.24V32.24H138.88V33.68H137.28Z" fill="#1E1C55"></path>
      <path d="M1000.8 73.04C1009.92 63.12 1014.56 54.64 1014.56 47.76C1014.56 44.08 1012.32 40.56 1007.84 36.88C1003.36 33.36 1000.96 30.32 1000.8 28.08H997.92C993.28 36.08 990.88 40.56 990.4 41.52C991.2 43.12 993.44 45.2 996.96 47.6C999.84 49.52 1001.28 51.76 1001.28 54.48C1001.28 56.4 1000.48 58.8 998.88 61.36C997.44 63.44 996 65.36 994.56 67.44L976.8 50.32C971.84 45.52 968.32 41.84 966.4 39.28C963.2 35.28 961.28 31.6 960.8 28.08H957.92C954.56 33.36 952.64 37.2 951.68 39.76C957.92 46 961.12 52.56 961.28 59.76C961.28 63.92 960 69.52 957.6 76.4C955.04 83.44 953.76 88.72 953.76 92.24C953.76 99.44 957.6 102.96 965.44 102.96C968.48 102.96 971.04 102.64 973.12 102.16L977.28 88.4C974.08 88.88 972.32 89.04 971.84 89.04C967.04 89.04 964.48 86.48 964.48 81.52C964.48 78.96 965.44 75.76 967.04 71.76C968.8 67.76 969.6 64.56 969.6 62.16V60.72L982.4 72.4C988.96 78.48 993.6 82.96 996.32 85.84C1002.72 93.04 1006.56 99.44 1007.84 105.2L1010.56 104.72C1014.08 98.32 1015.84 94.16 1016.16 92.56C1013.6 87.92 1008.48 81.36 1000.8 73.04ZM928.16 72.24C928.16 70.48 928.16 66.64 928.32 60.56C928.64 54.96 928.64 51.12 928.64 49.04C928.64 44.72 927.36 41.36 924.96 39.28C923.36 37.84 920.32 36.4 915.52 34.64C911.36 33.2 908.64 30.8 907.36 27.44H904.96C902.24 33.84 900 38.8 898.56 42.16C900.32 44.56 904 46.64 909.28 48.4C913.28 49.68 915.84 51.76 916.96 54.48C917.76 56.24 918.08 59.44 918.08 64.24C918.08 70.16 917.92 78.16 917.76 88.4H913.28C908.96 88.4 904.32 88.88 899.36 89.52L896.32 103.76C906.24 103.28 912.32 102.96 914.24 102.96H926.88L929.12 91.28C928.32 86 928 79.6 928.16 72.24ZM872.64 37.52C870.24 35.6 866.56 34.64 861.44 34.64H842.08C840.16 34.64 839.04 34.32 838.4 33.84C837.44 33.04 837.12 31.28 837.12 28.4C837.12 26.96 837.28 24.72 837.76 21.68C838.4 18.64 838.56 15.92 838.56 13.36C838.56 9.83995 837.92 6.79996 836.64 4.23996L834.24 4.07996L825.6 16.4C827.04 21.04 827.68 26 827.68 30.96C827.68 32.08 827.52 33.52 827.36 35.28C827.2 37.04 827.2 38.48 827.2 39.28C827.2 41.84 827.68 43.92 828.96 45.84C830.24 47.92 832.16 49.04 834.4 49.04H858.08C863.68 49.04 866.56 52.72 866.56 59.76C866.56 64.24 864.96 68.56 861.92 72.56C859.52 75.76 855.84 78.96 851.04 82.48C847.2 85.2 843.36 87.92 839.52 90.64C838.4 97.04 837.6 102 837.28 105.36L838.72 107.28C840.96 105.84 845.44 102.32 852.32 96.4C859.36 90.32 863.52 86.32 864.96 84.56C873.12 74 877.12 62.64 877.12 50.8C877.12 44.4 875.68 40.08 872.64 37.52ZM796.96 34.64C792.8 33.2 790.08 30.8 788.8 27.44H786.56C783.84 34 781.6 38.96 780.16 42.16C781.44 43.76 783.04 45.04 785.12 46C785.92 46.48 787.84 47.28 790.88 48.4C792.96 49.2 794.24 50.48 794.88 52.08C795.04 52.72 795.2 54 795.2 56.08C795.2 63.12 792.48 70.96 787.36 79.44L790.56 80.56C794.08 78.48 797.76 74.16 801.6 67.6C806.08 60.24 808.32 53.68 808.32 47.76C808.32 43.44 807.36 40.4 805.44 38.64C804.32 37.52 801.44 36.24 796.96 34.64ZM744.96 82.48C740.96 88.08 736 90.8 730.24 90.8C724.48 90.8 720 88.56 716.8 83.76C713.92 79.44 712.48 73.52 712.48 66C712.48 58.64 712.64 53.04 712.96 49.04H742.72C744.8 49.04 746.56 50.64 748.16 53.68C749.76 56.88 750.56 60.88 750.56 65.84C750.56 71.92 748.8 77.52 744.96 82.48ZM745.44 34.64H707.52C706.4 34.64 705.12 34 703.84 32.72C702.24 31.28 701.44 29.68 701.28 27.76H699.04L690.88 42C691.68 43.28 692.96 44.56 694.72 45.84C696.32 46.8 697.76 47.76 699.2 48.88C700.8 50 701.76 51.92 702.08 54.8L702.56 62.64C703.2 76.88 704.8 86.96 707.52 92.88C711.36 101.2 717.92 105.36 727.36 105.36C736.64 105.36 744.8 100.24 751.84 90.32C758.4 81.04 761.76 70.96 761.76 60.24C761.76 52.88 760.16 46.8 757.12 42C754.08 37.04 750.24 34.64 745.44 34.64ZM648.8 30.96C645.44 30.96 642.08 31.92 638.72 33.84C636.48 35.76 633.92 41.04 631.2 49.68L633.92 50.8C636.8 46.96 640.64 45.04 645.44 45.04C650.72 45.04 654.56 47.12 657.12 51.6C659.2 55.28 660.32 60.08 660.32 66C660.32 72.08 658.56 77.52 655.04 82.48C651.2 87.76 646.4 90.48 640.64 90.48C628.96 90.48 623.2 82.32 623.2 66C623.2 64.24 623.36 61.52 623.68 57.68C623.84 54 624 51.44 624 49.84C624 43.76 622.72 39.6 620.32 37.84C618.4 36.4 616.48 34.96 614.56 33.52C612.64 31.76 611.52 29.84 611.36 27.76H609.12L600.96 41.84C601.76 43.12 603.04 44.4 604.8 45.68C606.24 46.64 607.68 47.6 609.12 48.72C611.68 50.8 613.28 55.28 613.6 62.48C614.24 77.04 615.84 87.12 618.24 92.88C621.76 101.2 628.16 105.36 637.44 105.36C646.72 105.36 654.88 100.24 661.76 90.32C668 81.04 671.2 70.96 671.2 60.24C671.2 52.24 669.44 45.52 665.92 40.08C661.92 34 656.16 30.96 648.8 30.96Z" fill="#1E1C55"></path>
    </g>
  </g>
  <defs>
    <clipPath id="clip0_742_254">
      <rect width="1016" height="120" fill="white"></rect>
    </clipPath>
  </defs>
</svg>
