<svg version="1.2" xmlns="http://www.w3.org/2000/svg" viewBox="0 0 1550 1105" width="1550" height="1105"><style>.a{fill:#3b3b4d}</style><path fill-rule="evenodd" class="a" d="m276.3 66.6l341.6 452.3c110.4 137.8 211.7 247 313.3 306.7 181.9 106.5 359.1 88.3 460.7-5.3 128-117.8 134.4-287.2 28.1-476.9l30.1 7.3c294.2 461.5-114.1 860.5-538.6 728.5-170.2-53-255.3-122.5-438.9-363.7-119-156.1-471.7-714.6-471.7-714.6zm266.4 64.6c209 249.3 365.1 484.1 597 549.8 189.1 53.6 327.2-125.6 187.4-359.9l24.9 5.8c196 305.5-1.5 543.5-241.5 506.7-287.8-44-491.1-416.1-753.4-747.3zm232.5 56.2c134.9 158.1 249.6 307.5 376.1 335.8 121.6 29.9 182.4-75.2 96.4-221.2l16.3 3.8c128.2 200.7 28 356.1-130.9 311.6-180.4-50.4-338.2-256.3-507.9-466.2zm324.9 257.7c-42.3-51.9-139-212.9-139-212.9l125.1 30.7c0 0 57.9 172.3 59.3 177 4.7 13.9-18.5 37.9-45.4 5.2z"/></svg>