<svg version="1.2" xmlns="http://www.w3.org/2000/svg" viewBox="0 0 1544 2696" width="1544" height="2696"><style>.a{fill:#180f5e}</style><path fill-rule="evenodd" class="a" d="m0.7 2695.6l127-179.2h1288.2l127.3 179.2zm697.7-682.3v179h-361.9v-179zm508.9 0v179h-362.1v-179zm0-72.6h-362.3c-2.7-41.5-34.5-74.3-73.3-74.3-38.7 0-70.3 32.8-73.1 74.3h-362.2v-178.9h870.9zm-961.5-430.5h452.5v178.8h-361.9zm599.3 0h452.8l-90.7 178.8h-362.1zm-728.7-251.6h197.1v80h100.7v-80h171.1v80h100.8v-80h171.2v80h100.9v-80h171.1v80h100.9v-80h197l-90.5 179h-491.6c0-44.2-32.8-80.1-73.4-80.1-40.4 0-73.4 35.9-73.4 80.1h-491.4zm247.5-1258h158.2v84.7h55v-84.7h167.3v84.7h55v-84.7h167.2v84.7h54.9v-84.7h158.2v179h-815.8zm-27.5 754.9h870.8l-90.6 179h-689.6zm780.2 251.4v178.9h-689.6v-178.9zm-46.8-503.4v179.2h-596v-179.2zm0-251.4v179h-596v-179zm-888.1 2191.8l127.2-179.1h925.6l127.3 179.1z"/></svg>