<svg version="1.2" xmlns="http://www.w3.org/2000/svg" viewBox="0 0 1550 1516" width="1550" height="1516"><style>.a{fill:#ff4e31}.b{fill:#111c3d}</style><path class="a" d="m1328.7 1.3c-397.1-17.3-746.4 273-794.7 672.5-0.7 6.8-7.9 10.4-15.5 5-30.2-23.4-90.3-65.9-141.5-86.4-0.3 0-0.3-0.4 0-0.4 26.7-10.1 47.9-35.3 54.8-63 5.7-24.9-7.3-42.5-33.5-33.9-67 22.4-136.9 24.9-206.7 26.3-35.3 0.8-71 0.4-106.3 0-17.2-0.3-34.9-1.4-52.2-0.7-46.8 2.5-37.1 41.8-10.8 46.8q32.8 6.2 65.2 15.5c22.7 6.5 53.3 17.3 75.6 27.4 77.4 31.7 148.7 76.4 211.4 131.5q0 0 0.4 0c57.9 51.1 107.6 111.3 148.3 177.2 21.3 34.2 40.7 82.8 56.9 121.4 2.5 6.8 9.4 23 9.7 24.1 97.3 226.2 301.4 399.8 556.7 450.2 11.2 2.2 22-5.4 23.1-16.5 1.1-8.3-3.6-16.2-10.8-19.8-290.3-136.9-473.9-446.7-433.6-781.7 40.4-334.9 292.4-592.8 606.8-657.3 8.3-1.8 14.4-8.3 15.1-16.6 1.4-11.1-6.8-21.2-18.4-21.6z"/><path class="b" d="m1280.1 267.1c97.6-2.1 188 25.3 263.6 73.5 7.9 5.1 8.3 16.6 0.4 22l-0.7 0.4c-2.9 2.1-6.5 2.8-9.8 2.1q-41.4-7.9-84.9-9.7c-289.9-11.2-538 194.5-586.3 471.8-0.7 3.3-2.5 6.5-5.7 8.3-7.6 5.4-18.4 1.1-20.6-7.9-9-43.6-12.2-89-8.2-135.8 19.4-234.5 216.4-419.3 452.2-424.7z"/></svg>