<svg xmlns="http://www.w3.org/2000/svg" viewBox="-26 0 412 412" width="512" height="512" role="img" aria-label="Cube Financial Group"><g><path d="M180,20 L341.0807251039056,113 L180,206 L18.919274896094407,113 Z" fill="#c9ac64"></path><path d="M18.919274896094407,113 L180,206 L180,392 L18.919274896094407,299 Z" fill="#a98c44"></path><path d="M341.0807251039056,113 L180,206 L180,392 L341.0807251039056,299 Z" fill="#8a7234"></path><path d="M180.00,21.55 L231.01,51.00 L180.00,80.45 L128.99,51.00 Z" fill="hsl(212,44%,64%)"></path><path d="M126.31,52.55 L177.32,82.00 L126.31,111.45 L75.30,82.00 Z" fill="hsl(212,44%,61.5%)"></path><path d="M72.61,83.55 L123.62,113.00 L72.61,142.45 L21.60,113.00 Z" fill="hsl(212,44%,59%)"></path><path d="M233.69,52.55 L284.70,82.00 L233.69,111.45 L182.68,82.00 Z" fill="hsl(212,44%,62.5%)"></path><path d="M180.00,83.55 L231.01,113.00 L180.00,142.45 L128.99,113.00 Z" fill="hsl(212,44%,60%)"></path><path d="M126.31,114.55 L177.32,144.00 L126.31,173.45 L75.30,144.00 Z" fill="hsl(212,44%,57.5%)"></path><path d="M287.39,83.55 L338.40,113.00 L287.39,142.45 L236.38,113.00 Z" fill="hsl(212,44%,61%)"></path><path d="M233.69,114.55 L284.70,144.00 L233.69,173.45 L182.68,144.00 Z" fill="hsl(212,44%,58.5%)"></path><path d="M180.00,145.55 L231.01,175.00 L180.00,204.45 L128.99,175.00 Z" fill="hsl(212,44%,56%)"></path><path d="M20.26,115.33 L71.27,144.78 L71.27,203.68 L20.26,174.22 Z" fill="hsl(214,49%,44%)"></path><path d="M20.26,177.32 L71.27,206.78 L71.27,265.68 L20.26,236.22 Z" fill="hsl(214,49%,40%)"></path><path d="M20.26,239.32 L71.27,268.77 L71.27,327.68 L20.26,298.23 Z" fill="hsl(214,49%,36%)"></path><path d="M73.96,146.32 L124.96,175.78 L124.96,234.68 L73.96,205.22 Z" fill="hsl(214,49%,43.5%)"></path><path d="M73.96,208.32 L124.96,237.78 L124.96,296.68 L73.96,267.23 Z" fill="hsl(214,49%,39.5%)"></path><path d="M73.96,270.32 L124.96,299.77 L124.96,358.68 L73.96,329.23 Z" fill="hsl(214,49%,35.5%)"></path><path d="M127.65,177.32 L178.66,206.78 L178.66,265.68 L127.65,236.22 Z" fill="hsl(214,49%,43%)"></path><path d="M127.65,239.32 L178.66,268.77 L178.66,327.68 L127.65,298.23 Z" fill="hsl(214,49%,39%)"></path><path d="M127.65,301.32 L178.66,330.77 L178.66,389.68 L127.65,360.23 Z" fill="hsl(214,49%,35%)"></path><path d="M339.74,115.33 L288.73,144.78 L288.73,203.68 L339.74,174.22 Z" fill="hsl(216,55%,31%)"></path><path d="M339.74,177.32 L288.73,206.78 L288.73,265.68 L339.74,236.22 Z" fill="hsl(216,55%,27.5%)"></path><path d="M339.74,239.32 L288.73,268.77 L288.73,327.68 L339.74,298.23 Z" fill="hsl(216,55%,24%)"></path><path d="M286.04,146.32 L235.04,175.78 L235.04,234.68 L286.04,205.22 Z" fill="hsl(216,55%,30.5%)"></path><path d="M286.04,208.32 L235.04,237.78 L235.04,296.68 L286.04,267.23 Z" fill="hsl(216,55%,27%)"></path><path d="M286.04,270.32 L235.04,299.77 L235.04,358.68 L286.04,329.23 Z" fill="hsl(216,55%,23.5%)"></path><path d="M232.35,177.32 L181.34,206.78 L181.34,265.68 L232.35,236.22 Z" fill="hsl(216,55%,30%)"></path><path d="M232.35,239.32 L181.34,268.77 L181.34,327.68 L232.35,298.23 Z" fill="hsl(216,55%,26.5%)"></path><path d="M232.35,301.32 L181.34,330.77 L181.34,389.68 L232.35,360.23 Z" fill="hsl(216,55%,23%)"></path></g></svg>